<svg xmlns="http://www.w3.org/2000/svg" xmlns:xlink="http://www.w3.org/1999/xlink" width="500" zoomAndPan="magnify" viewBox="0 0 375 374.999991" height="500" preserveAspectRatio="xMidYMid meet" version="1.0"><path fill="#fafbfa" d="M 93.640625 102.085938 C 92.710938 102.769531 92.816406 273.917969 93.75 274.507812 C 94.644531 275.074219 156.109375 274.992188 156.675781 274.425781 C 157.019531 274.078125 157.125 264.035156 157.125 231.488281 C 157.125 208.121094 157.199219 189 157.289062 189 C 157.585938 189 159.597656 191.042969 160.238281 192 C 160.582031 192.515625 161.628906 194.035156 162.5625 195.375 C 164.574219 198.273438 167.585938 202.644531 168.375 203.8125 C 168.683594 204.269531 169.78125 205.875 170.8125 207.375 C 171.84375 208.875 173.324219 211.046875 174.101562 212.207031 C 174.875 213.363281 175.761719 214.609375 176.070312 214.972656 C 176.375 215.335938 176.625 215.710938 176.625 215.804688 C 176.625 216.039062 178.992188 219.511719 179.320312 219.757812 C 179.632812 219.992188 181.5 222.71875 181.5 222.9375 C 181.5 223.019531 182.523438 224.574219 183.769531 226.386719 C 184.742188 227.796875 185.707031 229.207031 186.667969 230.625 C 187.011719 231.140625 187.507812 231.699219 187.773438 231.863281 C 188.035156 232.027344 188.25 232.339844 188.25 232.554688 C 188.25 232.769531 188.628906 233.476562 189.09375 234.121094 C 189.558594 234.769531 190.105469 235.574219 190.3125 235.910156 C 191.121094 237.203125 191.992188 238.457031 192.921875 239.667969 C 193.351562 240.214844 193.761719 240.777344 194.15625 241.355469 C 197.871094 246.957031 198.40625 247.75 199.875 249.84375 C 201.300781 251.871094 205.988281 258.683594 206.625 259.652344 C 206.933594 260.121094 207.652344 261.164062 208.214844 261.972656 C 208.78125 262.777344 209.902344 264.433594 210.707031 265.65625 C 212.648438 268.59375 213.003906 269.101562 214.21875 270.65625 C 214.785156 271.382812 215.25 272.109375 215.25 272.273438 C 215.25 272.433594 215.773438 273.089844 216.410156 273.726562 L 217.570312 274.886719 L 249.234375 274.789062 C 276.902344 274.699219 280.945312 274.617188 281.257812 274.125 C 281.480469 273.773438 281.582031 241.464844 281.527344 187.875 L 281.4375 102.1875 L 249.28125 102.09375 L 217.125 101.996094 L 217.125 143.925781 C 217.125 188.453125 217.136719 188.160156 215.476562 186.785156 C 215.144531 186.507812 214.875 186.105469 214.875 185.890625 C 214.875 185.671875 214.59375 185.1875 214.253906 184.808594 C 213.867188 184.371094 213.523438 183.90625 213.222656 183.40625 C 212.71875 182.53125 209.140625 177.257812 208.875 177 C 208.367188 176.507812 204.75 170.886719 204.75 170.589844 C 204.75 170.402344 204.585938 170.25 204.382812 170.25 C 204.183594 170.25 203.742188 169.71875 203.40625 169.066406 C 203.070312 168.414062 202.648438 167.699219 202.464844 167.472656 C 201.246094 165.972656 200.132812 164.398438 199.125 162.75 C 198.421875 161.617188 197.503906 160.246094 197.082031 159.707031 C 196.652344 159.160156 196.238281 158.597656 195.84375 158.019531 C 191.980469 152.1875 189.617188 148.710938 189.371094 148.5 C 189.167969 148.328125 184.667969 141.722656 183.375 139.699219 C 183.066406 139.214844 182.0625 137.75 181.144531 136.441406 C 180.226562 135.132812 178.621094 132.820312 177.582031 131.300781 C 176.421875 129.613281 175.257812 127.925781 174.09375 126.238281 C 170.480469 121.03125 168.917969 118.75 168.554688 118.171875 C 167.746094 116.882812 166.105469 114.5 165.03125 113.0625 C 164.417969 112.238281 163.632812 111.015625 163.289062 110.34375 C 162.945312 109.671875 162.527344 109.125 162.355469 109.125 C 162.1875 109.125 161.929688 108.746094 161.785156 108.28125 C 161.640625 107.816406 161.164062 106.988281 160.730469 106.441406 C 160.234375 105.816406 159.738281 105.191406 159.246094 104.566406 C 158.867188 104.082031 158.375 103.308594 158.15625 102.84375 L 157.753906 102 L 126.535156 102 C 109.359375 102 95.082031 101.910156 94.800781 101.804688 C 94.519531 101.695312 94 101.824219 93.640625 102.085938 " fill-opacity="1" fill-rule="nonzero"/><path fill="#04c43c" d="M 0 187.5 L 0 375 L 375 375 L 375 0 L 0 0 L 0 187.5 M 126.535156 102 L 157.753906 102 L 158.15625 102.84375 C 158.375 103.308594 158.867188 104.082031 159.246094 104.566406 C 159.625 105.046875 160.292969 105.890625 160.730469 106.441406 C 161.164062 106.988281 161.640625 107.816406 161.785156 108.28125 C 161.929688 108.746094 162.1875 109.125 162.355469 109.125 C 162.527344 109.125 162.945312 109.671875 163.289062 110.34375 C 163.632812 111.015625 164.417969 112.238281 165.03125 113.0625 C 166.105469 114.5 167.746094 116.882812 168.554688 118.171875 C 168.917969 118.75 170.480469 121.03125 174.09375 126.238281 C 174.96875 127.507812 176.539062 129.785156 177.582031 131.300781 C 178.621094 132.820312 180.226562 135.132812 181.144531 136.441406 C 182.0625 137.75 183.066406 139.214844 183.375 139.699219 C 184.667969 141.722656 189.167969 148.328125 189.371094 148.5 C 189.617188 148.710938 191.980469 152.1875 195.84375 158.019531 C 196.101562 158.410156 196.660156 159.167969 197.082031 159.707031 C 197.503906 160.246094 198.421875 161.617188 199.125 162.75 C 200.132812 164.398438 201.246094 165.972656 202.464844 167.472656 C 202.648438 167.699219 203.070312 168.414062 203.40625 169.066406 C 203.742188 169.71875 204.183594 170.25 204.382812 170.25 C 204.585938 170.25 204.75 170.402344 204.75 170.589844 C 204.75 170.886719 208.367188 176.507812 208.875 177 C 209.140625 177.257812 212.71875 182.53125 213.222656 183.40625 C 213.445312 183.800781 213.910156 184.429688 214.253906 184.808594 C 214.59375 185.1875 214.875 185.671875 214.875 185.890625 C 214.875 186.105469 215.144531 186.507812 215.476562 186.785156 C 217.136719 188.160156 217.125 188.453125 217.125 143.925781 L 217.125 101.996094 L 249.28125 102.09375 L 281.4375 102.1875 L 281.527344 187.875 C 281.582031 241.464844 281.480469 273.773438 281.257812 274.125 C 280.945312 274.617188 276.902344 274.699219 249.234375 274.789062 L 217.570312 274.886719 L 216.410156 273.726562 C 215.773438 273.089844 215.25 272.433594 215.25 272.273438 C 215.25 272.109375 214.785156 271.382812 214.21875 270.65625 C 213.003906 269.101562 212.648438 268.59375 210.707031 265.65625 C 209.890625 264.417969 209.058594 263.191406 208.214844 261.972656 C 207.652344 261.164062 206.933594 260.121094 206.625 259.652344 C 205.988281 258.683594 201.300781 251.871094 199.875 249.84375 C 198.40625 247.75 197.871094 246.957031 194.15625 241.355469 C 193.761719 240.777344 193.351562 240.214844 192.921875 239.667969 C 191.992188 238.457031 191.121094 237.203125 190.3125 235.910156 C 190.105469 235.574219 189.558594 234.769531 189.09375 234.121094 C 188.628906 233.476562 188.25 232.769531 188.25 232.554688 C 188.25 232.339844 188.035156 232.027344 187.773438 231.863281 C 187.507812 231.699219 187.011719 231.140625 186.667969 230.625 C 186.324219 230.109375 185.019531 228.203125 183.769531 226.386719 C 182.523438 224.574219 181.5 223.019531 181.5 222.9375 C 181.5 222.71875 179.632812 219.992188 179.320312 219.757812 C 178.992188 219.511719 176.625 216.039062 176.625 215.804688 C 176.625 215.710938 176.375 215.335938 176.070312 214.972656 C 175.761719 214.609375 174.875 213.363281 174.101562 212.207031 C 173.011719 210.589844 171.914062 208.980469 170.8125 207.375 C 169.78125 205.875 168.683594 204.269531 168.375 203.8125 C 167.585938 202.644531 164.574219 198.273438 162.5625 195.375 C 161.78125 194.253906 161.003906 193.128906 160.238281 192 C 159.597656 191.042969 157.585938 189 157.289062 189 C 157.199219 189 157.125 208.121094 157.125 231.488281 C 157.125 264.035156 157.019531 274.078125 156.675781 274.425781 C 156.109375 274.992188 94.644531 275.074219 93.75 274.507812 C 92.816406 273.917969 92.710938 102.769531 93.640625 102.085938 C 94 101.824219 94.519531 101.695312 94.800781 101.804688 C 95.082031 101.910156 109.359375 102 126.535156 102 " fill-opacity="1" fill-rule="nonzero"/></svg>